# xmcd
#
# Track frame offsets:
#	150
#	15962
#	38944
#	59829
#	78493
#	99463
#	115835
#	133994
#	152256
#	168336
#	187093
#
# Disc length: 2889 seconds
#
# Revision: 0
# Processed by: cddbd v1.5.2PL0 Copyright (c) Steve Scherf et al.
# Submitted via: EZCDAudioConverter 2.1.3.1
#
DISCID=8c0b470b
DTITLE=Andy Quach - Chinese Melodies
DYEAR=2010
DGENRE=Pop
TTITLE0=Andy Quach - Nguoi yeu hoi
TTITLE1=Andy Quach - Anh van doi em
TTITLE2=Andy Quach and Linda Chou - Se nhu la giac mo
TTITLE3=Andy Quach - Hay yeu di
TTITLE4=Andy Quach - Tinh xua da chet
TTITLE5=Andy Quach - Con tim con mo
TTITLE6=Andy Quach - Mot lan xin yeu em
TTITLE7=Andy Quach - Tinh yeu tro choi
TTITLE8=Andy Quach and Ngoc Thuy - Anh trang le loi
TTITLE9=Andy Quach - Thang 2 Ngay 18
TTITLE10=Andy Quach ft. Huy Vu - Lien khuc Chinese buon
EXTD=
EXTT0=
EXTT1=
EXTT2=
EXTT3=
EXTT4=
EXTT5=
EXTT6=
EXTT7=
EXTT8=
EXTT9=
EXTT10=
PLAYORDER=
